<?xml version="1.0" encoding="UTF-8"?>
<svg width="1280" height="640" viewBox="0 0 1280 640" fill="none" xmlns="http://www.w3.org/2000/svg" role="img" aria-labelledby="title desc">
  <title id="title">Agent Session Pack README hero</title>
  <desc id="desc">See, compress, and restore local AI agent sessions without touching the originals.</desc>
  <defs>
    <pattern id="grid" width="32" height="32" patternUnits="userSpaceOnUse"><path d="M 32 0 L 0 0 0 32" stroke="#eeeeee" stroke-width="1"/></pattern>
    <filter id="softShadow" x="-10%" y="-10%" width="120%" height="120%"><feDropShadow dx="0" dy="18" stdDeviation="22" flood-color="#000000" flood-opacity="0.08"/></filter>
  </defs>
  <rect width="1280" height="640" fill="#ffffff"/><rect width="1280" height="640" fill="url(#grid)" opacity="0.72"/><rect x="32" y="32" width="1216" height="576" rx="30" stroke="#e8e8e8" stroke-width="1.2"/>
  <g><text x="84" y="128" font-family="ui-monospace, SFMono-Regular, Menlo, Monaco, Consolas, 'Liberation Mono', monospace" font-size="14" font-weight="700" letter-spacing="2.4" fill="#666666">PROOF-FIRST SESSION STORAGE</text><text x="84" y="208" font-family="Inter, ui-sans-serif, system-ui, -apple-system, BlinkMacSystemFont, 'Segoe UI', sans-serif" font-size="62" font-weight="760" fill="#050505">Agent Session Pack</text><text x="86" y="276" font-family="Inter, ui-sans-serif, system-ui, -apple-system, BlinkMacSystemFont, 'Segoe UI', sans-serif" font-size="25" font-weight="500" fill="#3f3f3f">See, compress, and restore local AI agent</text><text x="86" y="314" font-family="Inter, ui-sans-serif, system-ui, -apple-system, BlinkMacSystemFont, 'Segoe UI', sans-serif" font-size="25" font-weight="500" fill="#3f3f3f">sessions without touching the originals.</text><g><rect x="84" y="350" width="110" height="34" rx="17" fill="#fafafa" stroke="#dedede"/><text x="139" y="372" text-anchor="middle" font-family="Inter, ui-sans-serif, system-ui, -apple-system, BlinkMacSystemFont, 'Segoe UI', sans-serif" font-size="13" font-weight="600" fill="#333333">dry-run</text></g><g><rect x="232" y="350" width="136" height="34" rx="17" fill="#fafafa" stroke="#dedede"/><text x="300" y="372" text-anchor="middle" font-family="Inter, ui-sans-serif, system-ui, -apple-system, BlinkMacSystemFont, 'Segoe UI', sans-serif" font-size="13" font-weight="600" fill="#333333">hash restore</text></g><g><rect x="380" y="350" width="136" height="34" rx="17" fill="#fafafa" stroke="#dedede"/><text x="448" y="372" text-anchor="middle" font-family="Inter, ui-sans-serif, system-ui, -apple-system, BlinkMacSystemFont, 'Segoe UI', sans-serif" font-size="13" font-weight="600" fill="#333333">local stores</text></g></g>
  <g filter="url(#softShadow)"><rect x="708" y="106" width="438" height="270" rx="22" fill="#ffffff" stroke="#dcdcdc"/><rect x="708" y="106" width="438" height="48" rx="22" fill="#fafafa" stroke="#dcdcdc"/><circle cx="734" cy="130" r="5" fill="#111111"/><circle cx="754" cy="130" r="5" fill="#cfcfcf"/><circle cx="774" cy="130" r="5" fill="#cfcfcf"/><text x="736" y="202" font-family="ui-monospace, SFMono-Regular, Menlo, Monaco, Consolas, 'Liberation Mono', monospace" font-size="15" font-weight="600" fill="#111111">proof workspace</text><rect x="736" y="226" width="132" height="12" rx="6" fill="#111111"/><rect x="736" y="252" width="262" height="10" rx="5" fill="#dcdcdc"/><rect x="736" y="276" width="324" height="10" rx="5" fill="#ececec"/><rect x="736" y="315" width="88" height="28" rx="14" fill="#111111"/><rect x="838" y="315" width="96" height="28" rx="14" fill="#f5f5f5" stroke="#dedede"/></g>
  <g filter="url(#softShadow)"><rect x="622" y="390" width="390" height="144" rx="18" fill="#0a0a0a"/><rect x="646" y="416" width="88" height="9" rx="4.5" fill="#ffffff" opacity="0.94"/><text x="646" y="460" font-family="ui-monospace, SFMono-Regular, Menlo, Monaco, Consolas, 'Liberation Mono', monospace" font-size="15" font-weight="600" fill="#f5f5f5">agent stores</text><rect x="646" y="484" width="260" height="9" rx="4.5" fill="#7c7c7c"/><rect x="646" y="506" width="164" height="9" rx="4.5" fill="#3f3f3f"/></g>
  <g><path d="M1016 462 C1088 462 1090 410 1146 410" stroke="#111111" stroke-width="2" stroke-linecap="round" stroke-dasharray="7 9"/><rect x="1078" y="402" width="116" height="44" rx="22" fill="#ffffff" stroke="#111111" stroke-width="1.4"/><text x="1136" y="429" text-anchor="middle" font-family="ui-monospace, SFMono-Regular, Menlo, Monaco, Consolas, 'Liberation Mono', monospace" font-size="13" font-weight="700" fill="#111111">restore check</text></g>
  <path d="M86 512 H456" stroke="#111111" stroke-width="2" stroke-linecap="round"/><path d="M86 534 H286" stroke="#d8d8d8" stroke-width="2" stroke-linecap="round"/>
</svg>
